<svg width="120" height="27" viewBox="0 0 120 27" fill="none" xmlns="http://www.w3.org/2000/svg">
<path d="M7.47117 3.4845V7.93043H10.5633V11.4738H7.47117V20.4994C7.47117 21.1679 7.59931 21.6471 7.85559 21.9368C8.11187 22.2265 8.60215 22.3713 9.32642 22.3713C9.86127 22.3713 10.3348 22.3323 10.7471 22.2543V25.9147C9.79999 26.2044 8.825 26.3493 7.82216 26.3493C4.43479 26.3493 2.70767 24.6389 2.64082 21.2181V11.4738H0V7.93043H2.64082V3.4845H7.47117Z" fill="white"/>
<path d="M23.4163 12.4599C22.7589 12.3708 22.1795 12.3262 21.6781 12.3262C19.8507 12.3262 18.6528 12.9446 18.0846 14.1815V26.015H13.2542V7.93043H17.8171L17.9509 10.0865C18.9203 8.42628 20.263 7.59615 21.9789 7.59615C22.5138 7.59615 23.0152 7.66857 23.4832 7.81343L23.4163 12.4599Z" fill="white"/>
<path d="M57.2054 17.1399C57.2054 20.037 56.5869 22.2989 55.3501 23.9258C54.1133 25.5415 52.3861 26.3493 50.1687 26.3493C48.2076 26.3493 46.6421 25.5972 45.4721 24.0929L45.2548 26.015H40.9092V0.342285H45.7395V9.55171C46.8538 8.24802 48.3191 7.59617 50.1353 7.59617C52.3416 7.59617 54.0687 8.40959 55.3167 10.0364C56.5758 11.6521 57.2054 13.9308 57.2054 16.8725V17.1399ZM52.375 16.7889C52.375 14.9615 52.0853 13.6299 51.5059 12.7942C50.9264 11.9474 50.0629 11.524 48.9152 11.524C47.3775 11.524 46.319 12.1535 45.7395 13.4127V20.5495C46.3301 21.8198 47.3998 22.4549 48.9486 22.4549C50.5086 22.4549 51.5337 21.6861 52.024 20.1484C52.258 19.413 52.375 18.2931 52.375 16.7889Z" fill="white"/>
<path d="M71.0278 24.1765C69.8356 25.625 68.1865 26.3493 66.0805 26.3493C64.1417 26.3493 62.6597 25.7922 61.6346 24.6779C60.6206 23.5636 60.1024 21.9312 60.0802 19.7807V7.93045H64.9105V19.6136C64.9105 21.4967 65.7685 22.4382 67.4845 22.4382C69.1224 22.4382 70.2479 21.8699 70.8607 20.7334V7.93045H75.7078V26.015H71.1616L71.0278 24.1765Z" fill="white"/>
<path d="M85.1345 3.48452V7.93045H88.2266V11.4738H85.1345V20.4994C85.1345 21.168 85.2626 21.6471 85.5189 21.9368C85.7752 22.2265 86.2655 22.3714 86.9897 22.3714C87.5246 22.3714 87.9981 22.3324 88.4104 22.2544V25.9147C87.4633 26.2045 86.4883 26.3493 85.4855 26.3493C82.0981 26.3493 80.371 24.6389 80.3041 21.2181V11.4738H77.6633V7.93045H80.3041V3.48452H85.1345Z" fill="white"/>
<path d="M119.933 12.46C119.276 12.3708 118.696 12.3262 118.195 12.3262C116.367 12.3262 115.17 12.9447 114.601 14.1815V26.015H109.771V7.93045H114.334L114.468 10.0866C115.437 8.4263 116.78 7.59617 118.496 7.59617C119.031 7.59617 119.532 7.6686 120 7.81345L119.933 12.46Z" fill="white"/>
<path d="M34.8071 1.83494V0.00604594L33.4192 0.0030229C31.9788 0.0030229 30.5353 0.00302297 29.0918 0H28.9095V1.83797H26.5387V2.01632C26.5448 3.13482 26.5448 3.01995 26.5387 4.23821C26.5387 4.33192 26.5479 4.45284 26.6407 4.54353C26.7303 4.63119 26.857 4.64328 26.9559 4.64328C27.6205 4.64026 28.2882 4.64026 28.9558 4.64328H29.4287C29.5369 4.64328 29.6358 4.60096 29.7131 4.52841C29.7904 4.45284 29.8306 4.3561 29.8306 4.2503V3.95707C29.8306 3.63059 29.8306 3.89963 29.8244 3.24969C29.8244 3.2376 29.8244 3.22551 29.8244 3.21644C29.8337 3.21644 29.846 3.21644 29.8677 3.21644C31.1844 3.22249 32.5012 3.22249 33.818 3.21644L33.8581 3.25574C33.852 4.0659 33.852 4.87908 33.8581 5.68923C33.8581 5.70737 33.8581 5.71946 33.8581 5.72853C33.8489 5.72853 33.8365 5.73155 33.821 5.72853C32.7392 5.72248 31.6574 5.72248 30.5755 5.72248H29.8955C29.7811 5.72248 29.6698 5.76783 29.5895 5.84643C29.5091 5.92805 29.4627 6.03385 29.4627 6.1457V6.62031C29.4658 7.24908 29.4658 7.88089 29.4597 8.50966C29.4597 8.62151 29.4689 8.74545 29.5647 8.83917C29.6575 8.92986 29.7842 8.94195 29.8893 8.94195C29.8924 8.94195 29.8955 8.94195 29.8986 8.94195C31.1937 8.93288 32.4888 8.94195 33.7809 8.93288C33.784 8.93288 33.784 8.93288 33.787 8.93288C33.8241 8.93288 33.8458 8.9359 33.852 8.93288C33.8551 8.94497 33.8581 8.96613 33.855 9.00543C33.8458 10.2328 33.8458 11.5115 33.855 12.8053C33.855 12.8446 33.852 12.8658 33.855 12.8748C33.8427 12.8779 33.8241 12.8779 33.7809 12.8779C32.4919 12.8688 31.1844 12.8688 29.8955 12.8779C29.8924 12.8779 29.8924 12.8779 29.8893 12.8779C29.8522 12.8779 29.8337 12.8748 29.8244 12.8779C29.8213 12.8658 29.8213 12.8446 29.8213 12.8053C29.8275 12.3035 29.8275 11.9226 29.8275 11.5084C29.8275 11.2666 29.8275 11.0127 29.8275 10.7195C29.8275 10.6288 29.8275 10.5018 29.7317 10.4081C29.6668 10.3446 29.574 10.3174 29.4566 10.3174C28.6034 10.3234 27.7534 10.3234 26.9003 10.3174C26.8076 10.3174 26.7087 10.3265 26.6252 10.4081C26.5294 10.5018 26.5325 10.6318 26.5325 10.6741C26.5356 11.717 26.5387 12.5665 26.5387 13.5308V13.7061H28.9064V16.0883H29.0887C29.7626 16.0852 30.4395 16.0852 31.1133 16.0852H31.8923C32.801 16.0852 33.7129 16.0852 34.6216 16.0883H34.804V13.7061H37.1408V13.5278C37.1377 12.0012 37.1377 10.4776 37.1408 8.95102C37.1408 8.86637 37.1222 8.79685 37.0882 8.73639L37.0357 8.64872H34.804V6.07617L35.6942 6.07315C35.8766 6.07617 36.0589 6.07617 36.2413 6.07617H36.7884C37.0171 6.0671 37.1439 5.93409 37.1439 5.70132C37.1377 4.47097 37.1377 3.24062 37.1439 2.01028V1.83192H34.8071V1.83494Z" fill="#F78318"/>
<path d="M105 8C105 13.9972 105 19.9337 105 25.9502C104.774 25.9639 104.561 25.986 104.348 25.986C101.89 25.9887 99.4324 25.9694 96.9744 25.9998C96.3998 26.008 96.2668 25.7986 96.2828 25.2501C96.3174 24.0182 96.2934 22.7835 96.2934 21.4881C94.8277 21.4881 93.4418 21.4881 92 21.4881C92 16.9682 92 12.5117 92 8C96.3094 8 100.613 8 105 8ZM96.3945 21.3724C97.8336 21.3724 99.1956 21.3724 100.568 21.3724C100.568 18.4041 100.568 15.4827 100.568 12.5365C99.1584 12.5365 97.7964 12.5365 96.3945 12.5365C96.3945 15.4965 96.3945 18.4151 96.3945 21.3724Z" fill="white"/>
</svg>
